# AST/ASF file generated using VICON BodyLanguage
# -----------------------------------------------
:version 1.10
:name VICON
:units
  mass 1.0
  length 0.45
  angle deg
:documentation
   .ast/.asf automatically generated from VICON data using
   VICON BodyBuilder and BodyLanguage model FoxedUp or BRILLIANT.MOD
:root
   order TX TY TZ RX RY RZ
   axis XYZ
   position 0 0 0  
   orientation 0 0 0 
:bonedata
  begin
     id 1 
     name lhipjoint
     direction 0.558404 -0.748506 0.357664 
     length 2.4234 
     axis 0 0 0  XYZ
  end
  begin
     id 2 
     name lfemur
     direction 0.34202 -0.939693 0  
     length 7.14567  
     axis 0 0 20  XYZ
    dof rx ry rz
    limits (-160.0 20.0)
           (-70.0 70.0)
           (-60.0 70.0)
  end
  begin
     id 3 
     name ltibia
     direction 0.34202 -0.939693 0   
     length 8.13956   
     axis 0 0 20   XYZ
    dof rx
    limits (-10.0 170.0)
  end
  begin
     id 4 
     name lfoot
     direction 0.0791314 -0.217412 0.972867   
     length 2.00134   
     axis -90 7.62852e-016 20   XYZ
    dof rx rz
    limits (-45.0 90.0)
           (-70.0 20.0)
  end
  begin
     id 5 
     name ltoes
     direction 1.53547e-011 -4.21922e-011 1   
     length 1.00735   
     axis -90 7.62852e-016 20   XYZ
    dof rx
    limits (-90.0 20.0)
  end
  begin
     id 6 
     name rhipjoint
     direction -0.496392 -0.78327 0.374276   
     length 2.31584  
     axis 0 0 0  XYZ 
  end
  begin
     id 7 
     name rfemur
     direction -0.34202 -0.939693 0   
     length 7.47417   
     axis 0 0 -20   XYZ
    dof rx ry rz
    limits (-160.0 20.0)
           (-70.0 70.0)
           (-70.0 60.0)
  end
  begin
     id 8 
     name rtibia
     direction -0.34202 -0.939693 0   
     length 7.69071   
     axis 0 0 -20   XYZ
    dof rx
    limits (-10.0 170.0)
 end
 begin
     id 9 
     name rfoot
     direction -0.103069 -0.28318 0.953512   
     length 2.16135  
     axis -90 -7.62852e-016 -20   XYZ
    dof rx rz
    limits (-45.0 90.0)
           (-20.0 70.0)
  end
  begin
     id 10 
     name rtoes
     direction -1.53581e-011 -4.21904e-011 1   
     length 1.07867   
     axis -90 -7.62852e-016 -20   XYZ
    dof rx
    limits (-90.0 20.0)
  end
  begin
     id 11 
     name lowerback
     direction -0.0258961 0.994776 -0.0987407   
     length 2.19412   
     axis 0 0 0   XYZ
    dof rx ry rz
    limits (-20.0 45.0)
           (-30.0 30.0)
           (-30.0 30.0)
  end
  begin
     id 12 
     name upperback
     direction 0.0402454 0.999185 0.00320666   
     length 2.18445   
     axis 0 0 0   XYZ
    dof rx ry rz
    limits (-20.0 45.0)
           (-30.0 30.0)
           (-30.0 30.0)
  end
  begin
     id 13 
     name thorax
     direction 0.0519376 0.997415 0.0496558   
     length 2.21487   
     axis 0 0 0   XYZ
    dof rx ry rz
    limits (-20.0 45.0)
           (-30.0 30.0)
           (-30.0 30.0)
  end
  begin
     id 14 
     name lowerneck
     direction -0.0921276 0.983211 0.157506   
     length 1.61201   
     axis 0 0 0   XYZ
    dof rx ry rz
    limits (-20.0 45.0)
           (-30.0 30.0)
           (-30.0 30.0)
  end
  begin
     id 15 
     name upperneck
     direction 0.0820814 0.98162 -0.172292   
     length 1.65275   
     axis 0 0 0   XYZ
    dof rx ry rz
    limits (-20.0 45.0)
           (-30.0 30.0)
           (-30.0 30.0)
  end
  begin
     id 16
     name head
     direction 0.0336554 0.996413 -0.0776455  
     length 1.66415  
     axis 0 0 0   XYZ
    dof rx ry rz
    limits (-20.0 45.0)
           (-30.0 30.0)
           (-30.0 30.0)
  end
  begin
     id 17 
     name lclavicle
     direction 0.94696 0.284418 -0.149576  
     length 3.41447  
     axis 0 0 0   XYZ
    dof ry rz
    limits (-20.0 10.0)
           (0.0 20.0)
  end
  begin
     id 18 
     name lhumerus
     direction 1 -0.000130264 -9.81312e-005   
     length 5.19964   
     axis 180 -30 -90   XYZ
    dof rx ry rz
    limits (-60.0 90.0)
           (-90.0 90.0)
           (-90.0 90.0)
  end
  begin
     id 19
     name lradius
     direction 1 -4.48961e-011 1.43854e-026   
     length 3.32189   
     axis 180 -30 -90   XYZ
    dof rx
    limits (-10.0 170.0)
  end
  begin
     id 20
     name lwrist
     direction 1 -4.48958e-011 3.1502e-026   
     length 1.66095   
     axis -1.97692e-014 90 90   XYZ
    dof ry
    limits (-180.0 0.0)
 end
  begin
     id 21 
     name lhand
     direction 1 -4.48927e-011 6.3004e-026   
     length 0.645616   
     axis -4.02019e-014 90 90   XYZ
    dof rx rz
    limits (-90.0 90.0)
           (-45.0 45.0)
  end
  begin
     id 22 
     name lfingers
     direction 1 -4.4904e-011 1.26008e-025   
     length 0.520512   
     axis -8.04039e-014 90 90   XYZ
    dof rx
    limits (0.0 90.0)
  end
  begin
     id 23
     name lthumb
     direction 0.707107 -6.34947e-011 0.707107   
     length 0.747354   
     axis -90 45 2.85299e-015   XYZ
    dof rx rz
    limits (-45.0 45.0)
           (-45.0 45.0)
  end
  begin
     id 24 
     name rclavicle
     direction -0.909391 0.383475 -0.161107   
     length 3.25176  
     axis 0 0 0   XYZ 
    dof ry rz
    limits (-10.0 20.0)
           (-20.0 0.0)
  end
  begin
     id 25 
     name rhumerus
     direction -1 -4.48965e-011 -1.81384e-027  
     length 5.6595   
     axis 180 30 90   XYZ
    dof rx ry rz
    limits (-90.0 60.0)
           (-90.0 90.0)
           (-90.0 90.0)
  end
  begin
     id 26 
     name rradius
     direction -1 -4.48996e-011 -8.09397e-027   
     length 3.37604   
     axis 180 30 90   XYZ
    dof rx
    limits (-10.0 170.0)
  end
  begin
     id 27 
     name rwrist
     direction -1 -4.48927e-011 -1.56669e-026   
     length 1.68802   
     axis 1.21142e-014 -90 -90   XYZ
    dof ry
    limits (-180.0 0.0)
  end
  begin
     id 28
     name rhand
     direction -1 -4.48912e-011 -3.13339e-026   
     length 0.824702   
     axis 1.99937e-014 -90 -90   XYZ
    dof rx rz
    limits (-90.0 90.0)
           (-45.0 45.0)
  end
  begin
     id 29
     name rfingers
     direction -1 -4.49011e-011 -6.26677e-026   
     length 0.664896   
     axis 3.99874e-014 -90 -90   XYZ
    dof rx
    limits (0.0 90.0)
  end
  begin
     id 30
     name rthumb
     direction -0.707107 -6.34931e-011 0.707107   
     length 0.954662   
     axis -90 -45 -2.85299e-015   XYZ
    dof rx rz
    limits (-45.0 45.0)
           (-45.0 45.0)
  end
:hierarchy
  begin
    root lhipjoint rhipjoint lowerback
    lhipjoint lfemur
    lfemur ltibia
    ltibia lfoot
    lfoot ltoes
    rhipjoint rfemur
    rfemur rtibia
    rtibia rfoot
    rfoot rtoes
    lowerback upperback
    upperback thorax
    thorax lowerneck lclavicle rclavicle
    lowerneck upperneck
    upperneck head
    lclavicle lhumerus
    lhumerus lradius
    lradius lwrist
    lwrist lhand lthumb
    lhand lfingers
    rclavicle rhumerus
    rhumerus rradius
    rradius rwrist
    rwrist rhand rthumb
    rhand rfingers
  end

#!OML:ASF F:\VICON\USERDATA\INSTALL\rory3\rory3.ASF
:FULLY-SPECIFIED
:DEGREES
332
root 12.0083 17.1338 11.3965 2.16066 -3.03374 -0.986852
lowerback 8.35801 -2.14849 -5.96555
upperback 0.866792 -3.22146 5.266
thorax -3.14454 -1.51581 9.31234
lowerneck -10.9208 -4.26455 -12.1815
upperneck 26.1205 -6.8139 12.2612
head 11.0463 -2.98524 5.71614
rclavicle -3.78685e-014 2.3059e-014
rhumerus -41.2494 -30.9001 -59.5038
rradius 29.9217
rwrist -18.6814
rhand -17.523 14.9934
rfingers 7.12502
rthumb 8.73071 -14.806
lclavicle -3.78685e-014 2.3059e-014
lhumerus -22.3287 5.61707 77.2935
lradius 38.9936
lwrist -1.47777
lhand -5.49328 31.2801
lfingers 7.12502
lthumb 20.3194 60.2371
rfemur -23.2561 4.10419 10.5756
rtibia 43.0784
rfoot -17.5849 -0.975541
rtoes 10.2836
lfemur -1.47099 -6.69904 -16.4726
ltibia 33.8112
lfoot -25.7445 6.38044
ltoes -14.3278
333
root 11.9577 17.1275 11.4514 2.20216 -3.16532 -1.11896
lowerback 8.36575 -2.08536 -5.89393
upperback 0.777892 -3.12924 5.28223
thorax -3.26423 -1.46136 9.28435
lowerneck -11.1454 -4.10362 -11.974
upperneck 26.0431 -6.52819 12.0292
head 11.003 -2.85111 5.6238
rclavicle -3.37934e-014 2.54444e-014
rhumerus -40.9863 -30.3819 -59.983
rradius 30.3337
rwrist -18.9162
rhand -17.7756 14.9505
rfingers 7.12502
rthumb 8.48689 -14.859
lclavicle -3.37934e-014 2.54444e-014
lhumerus -22.3424 5.68695 77.1656
lradius 39.2455
lwrist -1.45584
lhand -6.28804 30.6441
lfingers 7.12502
lthumb 19.5554 59.6806
rfemur -23.0554 4.22614 10.8949
rtibia 43.0259
rfoot -17.7982 -0.979134
rtoes 9.80074
lfemur -1.30012 -6.7136 -16.21
ltibia 33.9451
lfoot -25.4508 6.80077
ltoes -19.6051
334
root 11.9087 17.1342 11.5027 2.2062 -3.2759 -1.2408
lowerback 8.33852 -2.05047 -5.82545
upperback 0.847642 -3.07575 5.28451
thorax -3.18987 -1.44144 9.23696
lowerneck -11.4005 -4.02444 -11.825
upperneck 25.717 -6.34405 11.8785
head 10.8947 -2.75882 5.54878
rclavicle 2.5842e-015 -1.90833e-014
rhumerus -40.4022 -29.9504 -60.6478
rradius 30.7587
rwrist -19.1791
rhand -17.922 14.5847
rfingers 7.12502
rthumb 8.34558 -15.2305
lclavicle 2.5842e-015 -1.90833e-014
lhumerus -22.1638 5.84374 77.0373
lradius 39.6604
lwrist -1.30552
lhand -6.51502 30.8921
lfingers 7.12502
lthumb 19.3372 59.9506
rfemur -22.808 4.3514 11.2119
rtibia 42.9113
rfoot -17.9475 -0.993727
rtoes 9.45213
lfemur -1.21457 -6.81637 -15.9614
ltibia 34.134
lfoot -25.1478 6.90538
ltoes -21.7683
335
root 11.8648 17.1559 11.5577 2.16395 -3.35483 -1.40309
lowerback 8.32197 -2.02163 -5.65391
upperback 0.876212 -3.01993 5.31373
thorax -3.16916 -1.41743 9.16088
lowerneck -10.6481 -3.95736 -12.3908
upperneck 24.7626 -6.25899 12.4171
head 10.4163 -2.73831 5.82948
rclavicle 4.7112e-014 -2.38542e-014
rhumerus -39.9879 -29.3751 -61.1793
rradius 31.2035
rwrist -19.4856
rhand -17.894 14.2204
rfingers 7.12502
rthumb 8.37263 -15.5937
lclavicle 4.7112e-014 -2.38542e-014
lhumerus -22.1034 6.12552 76.9825
lradius 40.0465
lwrist -1.13165
lhand -6.33864 31.26
lfingers 7.12502
lthumb 19.5068 60.3015
rfemur -22.4337 4.34461 11.5666
rtibia 42.6937
rfoot -18.0656 -0.870333
rtoes 9.72951
lfemur -1.21932 -7.14944 -15.7289
ltibia 34.4804
lfoot -24.9131 6.72024
ltoes -20.5244
336
root 11.827 17.1699 11.6282 1.94444 -3.39604 -1.34213
lowerback 8.39041 -1.99664 -5.61194
upperback 0.880882 -2.98693 5.25275
thorax -3.2146 -1.39944 9.07035
lowerneck -11.001 -3.73513 -12.1806
upperneck 24.8734 -5.88579 12.162
head 10.4556 -2.56178 5.7469
rclavicle -1.55052e-014 -1.59028e-015
rhumerus -39.7989 -29.0524 -61.3969
rradius 31.2494
rwrist -19.2551
rhand -17.3862 14.9891
rfingers 7.12502
rthumb 8.86264 -14.8048
lclavicle -1.55052e-014 -1.59028e-015
lhumerus -22.1085 6.41526 76.9239
lradius 40.194
lwrist -1.00051
lhand -6.07282 31.5856
lfingers 7.12502
lthumb 19.7623 60.601
rfemur -21.7381 4.05721 11.6502
rtibia 42.4069
rfoot -18.2495 -0.498909
rtoes 10.0313
lfemur -0.931284 -7.60847 -15.8601
ltibia 34.8821
lfoot -24.7565 6.77947
ltoes -20.0139
337
root 11.7715 17.1886 11.6633 2.24717 -3.60958 -2.13812
lowerback 8.49162 -1.92241 -4.99451
upperback 0.687772 -2.82127 5.49125
thorax -3.52501 -1.30332 8.96847
lowerneck -10.4743 -3.6595 -12.547
upperneck 24.4432 -5.78936 12.4341
head 10.1997 -2.53849 5.91088
rclavicle 2.23633e-014 1.27222e-014
rhumerus -39.5731 -28.5638 -61.743
rradius 31.3239
rwrist -18.8528
rhand -16.9837 15.8346
rfingers 7.12502
rthumb 9.25109 -13.9424
lclavicle 2.23633e-014 1.27222e-014
lhumerus -22.1819 6.81092 76.845
lradius 40.3308
lwrist -1.03113
lhand -5.63389 32.2244
lfingers 7.12502
lthumb 20.1843 61.1958
rfemur -21.7617 4.67799 12.776
rtibia 42.0651
rfoot -18.1548 -1.00988
rtoes 9.65855
lfemur -1.36432 -7.58919 -14.7289
ltibia 35.3707
lfoot -24.3466 6.65293
ltoes -20.6643
338
root 11.7213 17.2048 11.7201 2.40378 -3.7043 -2.60041
lowerback 8.48436 -1.89798 -4.60546
upperback 0.540518 -2.74319 5.63166
thorax -3.70225 -1.25713 8.89239
lowerneck -11.0041 -3.43589 -12.292
upperneck 24.6482 -5.40159 12.1375
head 10.3044 -2.35013 5.80989
rclavicle 4.34344e-014 -2.22639e-014
rhumerus -39.3834 -27.5367 -62.3398
rradius 31.8263
rwrist -19.046
rhand -17.1646 15.6647
rfingers 7.12502
rthumb 9.07648 -14.12
lclavicle 4.34344e-014 -2.22639e-014
lhumerus -22.5226 7.13734 76.7994
lradius 40.6993
lwrist -1.03036
lhand -5.61397 32.3166
lfingers 7.12502
lthumb 20.2034 61.286
rfemur -21.5358 5.01776 13.49
rtibia 41.7475
rfoot -18.1807 -1.311
rtoes 8.98836
lfemur -1.57569 -7.59106 -14.0179
ltibia 35.8209
lfoot -23.8711 6.53592
ltoes -21.8791
339
root 11.6756 17.2182 11.7879 2.45746 -3.88894 -2.78616
lowerback 8.34621 -1.84572 -4.4419
upperback 0.471646 -2.65222 5.66598
thorax -3.72002 -1.21122 8.81958
lowerneck -11.2193 -3.30451 -12.1056
upperneck 24.688 -5.14554 11.8104
head 10.3104 -2.24207 5.68699
rclavicle -2.5842e-015 7.95139e-015
rhumerus -39.0761 -27.0554 -62.7102
rradius 31.9722
rwrist -19.1147
rhand -17.3352 15.6291
rfingers 7.12502
rthumb 8.91192 -14.1627
lclavicle -2.5842e-015 7.95139e-015
lhumerus -22.9572 7.34952 76.7621
lradius 41.3344
lwrist -0.83184
lhand -5.72299 32.0516
lfingers 7.12502
lthumb 20.0986 61.032
rfemur -21.2088 5.23491 13.8471
rtibia 41.4466
rfoot -18.2853 -1.2162
rtoes 9.28693
lfemur -1.62815 -7.64908 -13.7266
ltibia 36.3206
lfoot -23.4085 6.54315
ltoes -23.1378
340
root 11.6326 17.2276 11.8497 2.39518 -3.98306 -2.77638
lowerback 8.19975 -1.78506 -4.39569
upperback 0.623222 -2.56937 5.60147
thorax -3.49875 -1.18459 8.69862
lowerneck -11.6302 -3.33112 -11.9618
upperneck 24.5528 -5.09593 11.585
head 10.3267 -2.21577 5.57673
rclavicle -4.1546e-014 -1.11319e-014
rhumerus -38.338 -27.1216 -63.1579
rradius 31.7771
rwrist -18.8522
rhand -17.3508 15.9984
rfingers 7.12502
rthumb 8.89688 -13.794
lclavicle -4.1546e-014 -1.11319e-014
lhumerus -23.0063 7.5529 76.8024
lradius 42.0758
lwrist -0.480403
lhand -5.65135 33.0058
lfingers 7.12502
lthumb 20.1675 61.979
rfemur -20.7994 5.22209 13.9749
rtibia 41.1908
rfoot -18.3865 -0.950741
rtoes 9.93835
lfemur -1.57921 -7.77081 -13.6704
ltibia 36.807
lfoot -22.8833 6.53308
ltoes -24.4608
341
root 11.5924 17.2343 11.9021 2.21189 -3.84578 -2.74766
lowerback 8.45769 -1.79158 -4.31202
upperback 0.700866 -2.57849 5.53737
thorax -3.56664 -1.19001 8.59194
lowerneck -11.8366 -3.29252 -11.9458
upperneck 24.281 -4.97479 11.5047
head 10.2497 -2.15862 5.54789
rclavicle 2.44505e-014 4.77083e-015
rhumerus -37.7814 -26.6709 -63.7368
rradius 31.8296
rwrist -18.7756
rhand -17.3638 16.1304
rfingers 7.12502
rthumb 8.88434 -13.6626
lclavicle 2.44505e-014 4.77083e-015
lhumerus -22.9831 7.829 76.8127
lradius 42.2461
lwrist -0.325769
lhand -6.15602 32.3613
lfingers 7.12502
lthumb 19.6824 61.3849
rfemur -20.228 4.99114 14.1046
rtibia 40.9811
rfoot -18.5948 -0.822742
rtoes 10.5647
lfemur -1.51596 -7.99895 -13.6083
ltibia 37.3391
lfoot -22.273 6.51799
ltoes -26.4353
342
root 11.5499 17.2405 11.95 2.12576 -3.83431 -2.84684
lowerback 8.95819 -1.76932 -4.19266
upperback 0.514239 -2.54003 5.56717
thorax -4.05415 -1.14672 8.58782
lowerneck -11.9505 -3.24076 -12.0279
upperneck 24.3025 -4.82395 11.3299
head 10.2574 -2.11174 5.51684
rclavicle 1.8487e-014 -2.14687e-014
rhumerus -37.6368 -25.946 -64.0468
rradius 32.0102
rwrist -19.0496
rhand -17.3368 15.8395
rfingers 7.12502
rthumb 8.91035 -13.9523
lclavicle 1.8487e-014 -2.14687e-014
lhumerus -23.3477 8.06821 76.8356
lradius 42.3514
lwrist -0.263938
lhand -6.26293 31.9621
lfingers 7.12502
lthumb 19.5796 60.9962
rfemur -19.7701 5.0219 14.3962
rtibia 40.7884
rfoot -18.8511 -0.89005
rtoes 11.3715
lfemur -1.61877 -8.03607 -13.3662
ltibia 37.9685
lfoot -21.4367 6.51739
ltoes -27.7573
